<?xml version="1.0" encoding="UTF-8" standalone="no"?>
<!-- Created with Inkscape (http://www.inkscape.org/) -->

<svg
   xmlns:dc="http://purl.org/dc/elements/1.1/"
   xmlns:cc="http://creativecommons.org/ns#"
   xmlns:rdf="http://www.w3.org/1999/02/22-rdf-syntax-ns#"
   xmlns:svg="http://www.w3.org/2000/svg"
   xmlns="http://www.w3.org/2000/svg"
   xmlns:sodipodi="http://sodipodi.sourceforge.net/DTD/sodipodi-0.dtd"
   xmlns:inkscape="http://www.inkscape.org/namespaces/inkscape"
   width="49.999996mm"
   height="49.730782mm"
   viewBox="0 0 49.999996 49.730782"
   version="1.1"
   id="svg8"
   inkscape:version="0.92.3 (2405546, 2018-03-11)"
   sodipodi:docname="PICTO_FUSEE.svg">
  <defs
     id="defs2">
    <clipPath
       id="clipPath4534"
       clipPathUnits="userSpaceOnUse">
      <path
         inkscape:connector-curvature="0"
         id="path4532"
         d="M 0,197.229 H 199 V 0 H 0 Z" />
    </clipPath>
    <clipPath
       id="clipPath4606"
       clipPathUnits="userSpaceOnUse">
      <path
         inkscape:connector-curvature="0"
         id="path4604"
         d="M 8.112,98.614 C 8.112,48.143 49.027,7.226 99.5,7.226 v 0 c 50.472,0 91.387,40.917 91.387,91.388 v 0 c 0,50.472 -40.915,91.389 -91.387,91.389 v 0 c -50.473,0 -91.388,-40.917 -91.388,-91.389" />
    </clipPath>
    <clipPath
       id="clipPath4668"
       clipPathUnits="userSpaceOnUse">
      <path
         inkscape:connector-curvature="0"
         id="path4666"
         d="M 0,197.229 H 199 V 0 H 0 Z" />
    </clipPath>
    <clipPath
       id="clipPath4680"
       clipPathUnits="userSpaceOnUse">
      <path
         inkscape:connector-curvature="0"
         id="path4678"
         d="M 8.112,98.614 C 8.112,48.143 49.027,7.226 99.5,7.226 v 0 c 50.472,0 91.387,40.917 91.387,91.388 v 0 c 0,50.472 -40.915,91.389 -91.387,91.389 v 0 c -50.473,0 -91.388,-40.917 -91.388,-91.389" />
    </clipPath>
    <clipPath
       id="clipPath4690"
       clipPathUnits="userSpaceOnUse">
      <path
         inkscape:connector-curvature="0"
         id="path4688"
         d="M 0,197.229 H 199 V 0 H 0 Z" />
    </clipPath>
    <clipPath
       id="clipPath4698"
       clipPathUnits="userSpaceOnUse">
      <path
         inkscape:connector-curvature="0"
         id="path4696"
         d="M 56.0584,106.298 H 142.942 V 35.8992 H 56.0584 Z" />
    </clipPath>
    <clipPath
       id="clipPath4714"
       clipPathUnits="userSpaceOnUse">
      <path
         inkscape:connector-curvature="0"
         id="path4712"
         d="M 95.7213,64.3731 H 119.388 V 38.3158 H 95.7213 Z" />
    </clipPath>
    <clipPath
       id="clipPath4728"
       clipPathUnits="userSpaceOnUse">
      <path
         inkscape:connector-curvature="0"
         id="path4726"
         d="m 58.7213,64.3731 h 35.446 V 38.3158 h -35.446 z" />
    </clipPath>
    <clipPath
       id="clipPath4742"
       clipPathUnits="userSpaceOnUse">
      <path
         inkscape:connector-curvature="0"
         id="path4740"
         d="M 58.7213,82.346 H 119.388 V 65.9405 H 58.7213 Z" />
    </clipPath>
    <clipPath
       id="clipPath4756"
       clipPathUnits="userSpaceOnUse">
      <path
         inkscape:connector-curvature="0"
         id="path4754"
         d="M 58.7213,100.319 H 119.388 V 83.9133 H 58.7213 Z" />
    </clipPath>
    <clipPath
       id="clipPath4772"
       clipPathUnits="userSpaceOnUse">
      <path
         inkscape:connector-curvature="0"
         id="path4770"
         d="m 120.971,64.3731 h 19.5 V 38.3158 h -19.5 z" />
    </clipPath>
    <clipPath
       id="clipPath4786"
       clipPathUnits="userSpaceOnUse">
      <path
         inkscape:connector-curvature="0"
         id="path4784"
         d="m 120.971,92.7898 h 19.5 V 65.9405 h -19.5 z" />
    </clipPath>
    <clipPath
       id="clipPath4800"
       clipPathUnits="userSpaceOnUse">
      <path
         inkscape:connector-curvature="0"
         id="path4798"
         d="m 120.971,105.651 h 19.5 V 94.3572 h -19.5 z" />
    </clipPath>
    <clipPath
       id="clipPath4816"
       clipPathUnits="userSpaceOnUse">
      <path
         inkscape:connector-curvature="0"
         id="path4814"
         d="m 18.878,197.229 22.01,-113.663 122.666,27.323 -2.615,86.34 z" />
    </clipPath>
    <clipPath
       id="clipPath4882"
       clipPathUnits="userSpaceOnUse">
      <path
         inkscape:connector-curvature="0"
         id="path4880"
         d="M 0,197.229 H 199 V 0 H 0 Z" />
    </clipPath>
    <clipPath
       id="clipPath4890"
       clipPathUnits="userSpaceOnUse">
      <path
         inkscape:connector-curvature="0"
         id="path4888"
         d="m 130.555,71.5984 h 8 V 35.3992 h -8 z" />
    </clipPath>
    <clipPath
       id="clipPath4906"
       clipPathUnits="userSpaceOnUse">
      <path
         inkscape:connector-curvature="0"
         id="path4904"
         d="m 124.138,81.7835 h 14.417 V 35.3992 h -14.417 z" />
    </clipPath>
    <clipPath
       id="clipPath4922"
       clipPathUnits="userSpaceOnUse">
      <path
         inkscape:connector-curvature="0"
         id="path4920"
         d="M 73.6075,91.4473 H 103.816 V 59.7742 H 73.6075 Z" />
    </clipPath>
    <clipPath
       id="clipPath4938"
       clipPathUnits="userSpaceOnUse">
      <path
         inkscape:connector-curvature="0"
         id="path4936"
         d="M 55.5584,78.2742 H 78.388 v -9.875 H 55.5584 Z" />
    </clipPath>
    <clipPath
       id="clipPath4954"
       clipPathUnits="userSpaceOnUse">
      <path
         inkscape:connector-curvature="0"
         id="path4952"
         d="M 55.5584,61.3992 H 78.388 v -26 H 55.5584 Z" />
    </clipPath>
    <clipPath
       id="clipPath4970"
       clipPathUnits="userSpaceOnUse">
      <path
         inkscape:connector-curvature="0"
         id="path4968"
         d="m 86.763,69.3992 h 1 v -34 h -1 z" />
    </clipPath>
    <clipPath
       id="clipPath4986"
       clipPathUnits="userSpaceOnUse">
      <path
         inkscape:connector-curvature="0"
         id="path4984"
         d="m 111.263,99.8528 h 1 V 59.7742 h -1 z" />
    </clipPath>
    <clipPath
       id="clipPath5002"
       clipPathUnits="userSpaceOnUse">
      <path
         inkscape:connector-curvature="0"
         id="path5000"
         d="m 86.2005,69.9617 h 2.125 v -2.125 h -2.125 z" />
    </clipPath>
    <clipPath
       id="clipPath5018"
       clipPathUnits="userSpaceOnUse">
      <path
         inkscape:connector-curvature="0"
         id="path5016"
         d="m 76.8255,78.8367 h 2.125 v -2.125 h -2.125 z" />
    </clipPath>
    <clipPath
       id="clipPath5034"
       clipPathUnits="userSpaceOnUse">
      <path
         inkscape:connector-curvature="0"
         id="path5032"
         d="m 102.253,61.3367 h 2.125 v -2.125 h -2.125 z" />
    </clipPath>
    <clipPath
       id="clipPath5050"
       clipPathUnits="userSpaceOnUse">
      <path
         inkscape:connector-curvature="0"
         id="path5048"
         d="m 110.7,61.3367 h 2.125 v -2.125 H 110.7 Z" />
    </clipPath>
    <clipPath
       id="clipPath5066"
       clipPathUnits="userSpaceOnUse">
      <path
         inkscape:connector-curvature="0"
         id="path5064"
         d="m 136.992,82.346 h 2.125 v -2.125 h -2.125 z" />
    </clipPath>
    <clipPath
       id="clipPath5082"
       clipPathUnits="userSpaceOnUse">
      <path
         inkscape:connector-curvature="0"
         id="path5080"
         d="m 136.992,72.1609 h 2.125 v -2.125 h -2.125 z" />
    </clipPath>
    <clipPath
       id="clipPath5330"
       clipPathUnits="userSpaceOnUse">
      <path
         inkscape:connector-curvature="0"
         id="path5328"
         d="M 0,197.229 H 199 V 0 H 0 Z" />
    </clipPath>
    <clipPath
       id="clipPath5342"
       clipPathUnits="userSpaceOnUse">
      <path
         inkscape:connector-curvature="0"
         id="path5340"
         d="M 8.112,98.614 C 8.112,48.143 49.027,7.226 99.5,7.226 v 0 c 50.472,0 91.387,40.917 91.387,91.388 v 0 c 0,50.472 -40.915,91.389 -91.387,91.389 v 0 c -50.473,0 -91.388,-40.917 -91.388,-91.389" />
    </clipPath>
    <clipPath
       id="clipPath5428"
       clipPathUnits="userSpaceOnUse">
      <path
         inkscape:connector-curvature="0"
         id="path5426"
         d="M 0,197.229 H 199 V 0 H 0 Z" />
    </clipPath>
  </defs>
  <sodipodi:namedview
     id="base"
     pagecolor="#ffffff"
     bordercolor="#666666"
     borderopacity="1.0"
     inkscape:pageopacity="0.0"
     inkscape:pageshadow="2"
     inkscape:zoom="0.35"
     inkscape:cx="94.488183"
     inkscape:cy="93.979434"
     inkscape:document-units="mm"
     inkscape:current-layer="layer1"
     showgrid="false"
     inkscape:window-width="1159"
     inkscape:window-height="1048"
     inkscape:window-x="-7"
     inkscape:window-y="0"
     inkscape:window-maximized="0" />
  <metadata
     id="metadata5">
    <rdf:RDF>
      <cc:Work
         rdf:about="">
        <dc:format>image/svg+xml</dc:format>
        <dc:type
           rdf:resource="http://purl.org/dc/dcmitype/StillImage" />
        <dc:title></dc:title>
      </cc:Work>
    </rdf:RDF>
  </metadata>
  <g
     inkscape:label="Calque 1"
     inkscape:groupmode="layer"
     id="layer1"
     transform="translate(-26.679564,-123.96794)">
    <g
       transform="matrix(0.35277777,0,0,-0.35277777,16.578247,183.62221)"
       inkscape:label="PICTOGRAMME_FUSÉE"
       id="g5420">
      <g
         id="g5422">
        <g
           clip-path="url(#clipPath5428)"
           id="g5424">
          <g
             transform="translate(91.7217,100.2826)"
             id="g5430">
            <path
               inkscape:connector-curvature="0"
               id="path5432"
               style="fill:#fcd770;fill-opacity:1;fill-rule:nonzero;stroke:none"
               d="m 0,0 c 6.173,-2.747 9.385,-9.57 6.916,-15.859 -2.469,-6.29 -19.967,-15.469 -26.257,-13 -6.289,2.47 -0.938,13.876 2.413,19.744 C -13.479,-3.077 -4.509,2.005 0,0" />
          </g>
          <g
             transform="translate(100.3062,85.5214)"
             id="g5434">
            <path
               inkscape:connector-curvature="0"
               id="path5436"
               style="fill:#e3bc6e;fill-opacity:1;fill-rule:nonzero;stroke:none"
               d="m 0,0 c 2.47,6.289 -0.743,13.112 -6.916,15.859 -3.86,1.717 -6.861,0.815 -11.613,-3.273 C -20.586,3.96 -8.935,-1.192 -10.255,-9.156 -6.231,-6.673 -0.971,-2.474 0,0" />
          </g>
          <g
             transform="translate(100.1538,78.6854)"
             id="g5438">
            <path
               inkscape:connector-curvature="0"
               id="path5440"
               style="fill:#7abce9;fill-opacity:1;fill-rule:nonzero;stroke:none"
               d="M 0,0 C -17.584,10.431 -27.893,29.432 -15.011,54.535 -2.128,79.637 40.716,97.203 58.89,87.875 77.064,78.549 71.335,53.044 55.965,29.55 40.145,5.369 12.843,-7.619 0,0" />
          </g>
          <g
             transform="translate(58.9985,69.371)"
             id="g5442">
            <path
               inkscape:connector-curvature="0"
               id="path5444"
               style="fill:#f1475b;fill-opacity:1;fill-rule:nonzero;stroke:none"
               d="m 0,0 c 5.302,-3.545 7.195,-10.407 3.889,-15.861 -3.306,-5.454 -21.055,-11.186 -26.509,-7.879 -5.454,3.305 1.353,13.057 5.412,17.977 C -13.031,-0.699 -3.873,2.589 0,0" />
          </g>
          <g
             transform="translate(42.96,40.1698)"
             id="g5446">
            <path
               inkscape:connector-curvature="0"
               id="path5448"
               style="fill:#f1475b;fill-opacity:1;fill-rule:nonzero;stroke:none"
               d="m 0,0 c 2.375,0.012 4.389,-1.711 4.505,-4.083 0.117,-2.372 -4.165,-7.838 -6.537,-7.955 -2.372,-0.116 -2.303,4.311 -2.076,6.675 C -3.875,-2.931 -1.734,-0.008 0,0" />
          </g>
          <g
             transform="translate(32.5469,35.7391)"
             id="g5450">
            <path
               inkscape:connector-curvature="0"
               id="path5452"
               style="fill:#f1475b;fill-opacity:1;fill-rule:nonzero;stroke:none"
               d="m 0,0 c 0.824,-0.567 1.106,-1.648 0.575,-2.497 -0.531,-0.85 -3.328,-1.71 -4.178,-1.179 -0.848,0.53 0.242,2.046 0.89,2.81 C -2.047,-0.081 -0.602,0.415 0,0" />
          </g>
          <g
             transform="translate(81.186,100.5697)"
             id="g5454">
            <path
               inkscape:connector-curvature="0"
               id="path5456"
               style="fill:#67a5c4;fill-opacity:1;fill-rule:nonzero;stroke:none"
               d="m 0,0 c 2.474,0.65 4.518,1.529 5.836,2.639 6.8,5.727 7.362,15.634 1.943,22.681 C 6.591,26.865 4.528,27.914 2.025,28.508 -2.547,17.715 -2.77,8.141 0,0" />
          </g>
          <g
             transform="translate(130.3389,83.369)"
             id="g5458">
            <path
               inkscape:connector-curvature="0"
               id="path5460"
               style="fill:#67a5c4;fill-opacity:1;fill-rule:nonzero;stroke:none"
               d="m 0,0 c -0.557,2.809 -1.652,5.138 -3.334,6.432 -7.047,5.419 -16.955,4.857 -22.681,-1.943 -1.631,-1.937 -2.768,-5.434 -3.404,-9.575 C -22.272,-8.732 -11.157,-6.562 0,0" />
          </g>
          <g
             transform="translate(124.2417,90.6132)"
             id="g5462">
            <path
               inkscape:connector-curvature="0"
               id="path5464"
               style="fill:#fcd770;fill-opacity:1;fill-rule:nonzero;stroke:none"
               d="m 0,0 c -7.047,5.419 -16.954,4.857 -22.681,-1.943 -5.727,-6.799 -5.375,-32.795 1.425,-38.522 6.8,-5.726 16.64,7.614 21.325,15.169 C 4.892,-17.52 5.147,-3.958 0,0" />
          </g>
          <g
             transform="translate(87.624,127.2309)"
             id="g5466">
            <path
               inkscape:connector-curvature="0"
               id="path5468"
               style="fill:#fcd770;fill-opacity:1;fill-rule:nonzero;stroke:none"
               d="m 0,0 c 5.419,-7.047 4.857,-16.954 -1.943,-22.681 -6.799,-5.727 -32.795,-5.375 -38.522,1.425 -5.727,6.8 7.614,16.64 15.169,21.325 C -17.52,4.892 -3.958,5.147 0,0" />
          </g>
          <g
             transform="translate(123.7847,98.4545)"
             id="g5470">
            <path
               inkscape:connector-curvature="0"
               id="path5472"
               style="fill:#67a5c4;fill-opacity:1;fill-rule:nonzero;stroke:none"
               d="M 0,0 C -11.361,6.702 -25.766,19.818 -31.773,44.615 -32.148,44.191 -32.52,43.767 -32.878,43.336 -23.889,7.871 2.242,-4.312 16.124,-8.343 16.537,-8 16.95,-7.653 17.36,-7.299 12.726,-6.043 6.499,-3.833 0,0" />
          </g>
          <g
             transform="translate(106.5513,155.4598)"
             id="g5474">
            <path
               inkscape:connector-curvature="0"
               id="path5476"
               style="fill:#67a5c4;fill-opacity:1;fill-rule:nonzero;stroke:none"
               d="m 0,0 c 9.167,-33.582 33.891,-45.673 47.745,-49.877 0.272,0.38 0.539,0.767 0.804,1.154 -4.474,1.303 -10.164,3.439 -16.095,6.938 C 21.411,-35.271 7.496,-22.695 1.208,0.773 0.805,0.517 0.399,0.263 0,0" />
          </g>
          <g
             transform="translate(167.1143,141.7836)"
             id="g5478">
            <path
               inkscape:connector-curvature="0"
               id="path5480"
               style="fill:#67a5c4;fill-opacity:1;fill-rule:nonzero;stroke:none"
               d="m 0,0 c -8.298,4.895 -18.194,13.252 -25.276,27.049 -0.492,-0.051 -0.992,-0.12 -1.491,-0.186 C -19.022,11.542 -7.638,2.486 2.489,-2.835 2.572,-2.393 2.646,-1.954 2.716,-1.517 1.818,-1.041 0.912,-0.538 0,0" />
          </g>
          <g
             transform="translate(164.377,123.1122)"
             id="g5482">
            <path
               inkscape:connector-curvature="0"
               id="path5484"
               style="fill:#67a5c4;fill-opacity:1;fill-rule:nonzero;stroke:none"
               d="m 0,0 c -3.329,1.26 -7.002,2.931 -10.777,5.157 -1.973,1.164 -4.036,2.53 -6.131,4.111 3.193,4.512 2.78,10.795 -1.261,14.836 -3.847,3.847 -9.724,4.404 -14.174,1.696 -2.924,4.463 -5.563,9.623 -7.688,15.596 -0.436,-0.164 -0.871,-0.322 -1.307,-0.494 2.152,-6.054 4.841,-11.309 7.859,-15.885 -0.359,-0.283 -0.709,-0.582 -1.04,-0.913 -4.515,-4.515 -4.515,-11.835 0,-16.35 4.515,-4.515 11.835,-4.515 16.35,0 0.165,0.164 0.31,0.34 0.463,0.512 C -11.758,3.812 -5.737,0.812 -0.548,-1.188 -0.361,-0.792 -0.18,-0.396 0,0" />
          </g>
        </g>
      </g>
    </g>
  </g>
</svg>
