<svg id="Calque_1" data-name="Calque 1" xmlns="http://www.w3.org/2000/svg" xmlns:xlink="http://www.w3.org/1999/xlink" viewBox="0 0 820 820"><defs><style>.cls-1{fill:none;}.cls-2{fill:#f4efe5;}.cls-3{fill:#5c7eea;}.cls-4{fill:#fdd305;}.cls-5{clip-path:url(#clip-path);}.cls-6{fill:#231818;}.cls-7{fill:#fff;}.cls-8{fill:#a86351;}.cls-9{fill:#7f3f32;}.cls-10{fill:#871e1e;}.cls-11{fill:#efb920;}.cls-12{clip-path:url(#clip-path-2);}.cls-13{fill:#fcaf97;}</style><clipPath id="clip-path"><path class="cls-1" d="M769.65,446.3c0,184-149.17,333.18-333.18,333.18S103.29,630.31,103.29,446.3,252.46,40.52,436.47,40.52,769.65,262.29,769.65,446.3Z"/></clipPath><clipPath id="clip-path-2"><path class="cls-1" d="M1620.69,442.15c0,184-149.17,333.18-333.18,333.18S954.33,626.16,954.33,442.15,1103.5,44.67,1287.51,44.67,1620.69,258.14,1620.69,442.15Z"/></clipPath></defs><circle class="cls-2" cx="436.47" cy="446.3" r="333.18"/><rect class="cls-3" x="603.94" y="348.78" width="146.13" height="222" rx="9.25" transform="translate(1136.78 -217.21) rotate(90)"/><path class="cls-4" d="M696.81,460.63a4.57,4.57,0,0,0-.72-8c-12-5.45-23.65-10.34-34.73-14.46a4.56,4.56,0,0,0-6.24,4.58q1,17.82,3.13,34.87a4.56,4.56,0,0,0,7,3.42C675.53,475.06,686.06,468.19,696.81,460.63Z"/><rect class="cls-3" x="69.94" y="175.5" width="146.13" height="222" rx="9.25" transform="translate(429.5 143.5) rotate(90)"/><path class="cls-4" d="M162.81,287.34a4.57,4.57,0,0,0-.72-8c-12-5.45-23.65-10.34-34.73-14.45a4.56,4.56,0,0,0-6.24,4.57q1,17.82,3.14,34.88a4.56,4.56,0,0,0,7,3.42C141.53,301.77,152.07,294.91,162.81,287.34Z"/><rect class="cls-3" x="151.11" y="406.54" width="103.96" height="157.93" rx="9.25" transform="translate(688.59 282.41) rotate(90)"/><path class="cls-4" d="M217.18,486.1a3.23,3.23,0,0,0-.51-5.71c-8.55-3.88-16.82-7.36-24.7-10.29a3.24,3.24,0,0,0-4.44,3.26q.72,12.67,2.22,24.8a3.25,3.25,0,0,0,5,2.44C202.05,496.37,209.54,491.49,217.18,486.1Z"/><g class="cls-5"><path class="cls-6" d="M424.17,119.91s-75.12,5.59-99,100.21a372.86,372.86,0,0,0-11.27,82.4c-1.23,53.7,40.68,98.59,94.36,100.56,11.4.42,23.49.62,35.95.5,55.5-.57,99.6-47,97.07-102.43a302.45,302.45,0,0,1,2.28-55.81"/><path d="M591.49,860a46.18,46.18,0,0,1,87-30.88l62.18,216.26-56,22.74Z"/><path class="cls-7" d="M679.75,833.42a46.18,46.18,0,0,1-89.58,22.48L498.76,527.82a60.77,60.77,0,0,1,57.84-77.66h0a60.76,60.76,0,0,1,60.36,50Z"/><circle class="cls-7" cx="556.91" cy="511.03" r="5.49"/><path class="cls-8" d="M503.2,631.11s89.86-98,55.38-183.48c0,0-53-12.45-74.59-14.6-19.59-1.95-15.91-17.89-17.06-37.11L464.45,350l-65.26-5.71s5.5,36.56,3.78,53.55-2,34.67-21.21,36.93c-16.6,1.94-61.58,12.28-61.58,12.28C295.29,558.21,398.9,627.76,398.9,627.76Z"/><path class="cls-7" d="M549.24,441.93c39.18,6.89,67,28.81,71.16,76.49L583.31,760.66l25.94,221.23s-66.51-27.57-207.15,1.62c-94.32,19.58-144.79-19.3-144.79-19.3l25.24-195.64L260.71,512c11.26-46.28,32.35-63.09,71.63-69.94l20.77-4.26C363.58,450.41,467.76,542,467.76,542s45.75-83.5,51.13-104.18Z"/><path class="cls-7" d="M253.63,848.62a46.18,46.18,0,1,1-87.53-29.47L266.37,493.67A60.77,60.77,0,0,1,357,459.55h0a60.79,60.79,0,0,1,23.77,74.71Z"/><circle class="cls-7" cx="324.37" cy="510.94" r="5.49"/><path d="M164.38,826.31A46.18,46.18,0,0,1,255.5,841.4l-50.24,219.35-60-7.22Z"/><path class="cls-9" d="M467.29,405.57s-22.76-12-46.85-23.55c0,0,16.92,24.43,47.32,34.42C467.76,416.44,467.13,409.16,467.29,405.57Z"/><path class="cls-8" d="M369,278.07c2.34,38.12,9.73,65.59,26.23,82.39,25.07,25.52,60.29,45.06,74.64,45.91,23.12,1.38,47-30,62.31-94.06,2.38-10,2.6-21,2.94-32.49,2.37-80.76-9.74-146.3-86-146.3C396.62,133.52,363.55,189.61,369,278.07Z"/><path class="cls-6" d="M506.49,271c-1.08-6.08,6.2-10.78,11.68-8.22,1.89.87,3.54,3,3,5.07,0,.17-.17.33-.3.15-1.53-2.7-4.94-3-7.69-2.35s-5.16,2.81-6.35,5.46c-.08.18-.33.07-.31-.11Z"/><ellipse class="cls-6" cx="511.03" cy="272.99" rx="9.77" ry="5.47" transform="translate(203.96 764.3) rotate(-86.11)"/><path class="cls-6" d="M439,269.08c-1.07-6.08,6.21-10.78,11.69-8.22,1.88.87,3.53,3,3,5.07,0,.17-.17.33-.3.15-1.52-2.7-4.93-3-7.68-2.35a9,9,0,0,0-6.35,5.46c-.09.18-.33.07-.32-.11Z"/><ellipse class="cls-6" cx="449.82" cy="271.06" rx="9.77" ry="5.47" transform="translate(148.83 701.44) rotate(-86.11)"/><path class="cls-6" d="M425.64,263.42c2.38-16.53,23.73-23,36-12.31-3.22.23-6,.16-9.14.3-1.16.14-2.46.3-3.6.35-.79.16-2.66.48-3.43.61-7.63,1.71-13.69,5.82-19.79,11.05Z"/><path class="cls-6" d="M501.35,253.65c9.4-12.48,28-4.22,27.53,10.73-4-3.32-7.69-7.49-12.39-9.44s-9.64-1.67-15.14-1.29Z"/><path class="cls-9" d="M485.31,317.63c-3.05,0-5.73-.44-7.12-1.24l.83-1.46c3.28,1.89,16.65,1.22,19.62-3.15,1.79-2.63-1.28-5.92-4.16-8.21-8.41-6.69-9-26.32-8.8-34.45l1.68,0c-.12,6.15.12,26.71,8.16,33.1,6.24,5,5.9,8.43,4.51,10.47C497.7,316.16,490.89,317.63,485.31,317.63Z"/><path class="cls-8" d="M378.05,258.08c-19.13,2.09-33.22,16.62-31.49,32.45s18.63,27,37.76,24.88"/><path class="cls-6" d="M551.17,261s-46.41-21.57-147.31-11l-3.18-34.27s4.61,58.73-30.34,63.42c0,0-41.08-151.64,64.55-161.51C533.47,108.46,558.23,184.16,551.17,261Z"/><path class="cls-10" d="M493.08,347.41s15.82-18.74-41.19-10.25c0,0,2.58,32.08,23.36,32.82S493.08,347.41,493.08,347.41Z"/><path class="cls-7" d="M455.22,339.47s14.39,6.31,36.95,8.15C490.68,352.51,478.6,371.47,455.22,339.47Z"/><ellipse class="cls-6" cx="382.05" cy="136.88" rx="52.19" ry="48.35"/><ellipse class="cls-6" cx="329.86" cy="181.87" rx="52.19" ry="48.35"/><ellipse class="cls-6" cx="320.8" cy="240.76" rx="30.63" ry="28.37"/><rect class="cls-11" x="364.22" y="307.11" width="2.61" height="24.48"/></g><g class="cls-12"><path class="cls-13" d="M768.09,873.09S665.61,912.52,661.2,914.32c0,0-4.45-2.61,2.51-9.61S688.2,888.65,693.87,886c0,0-45.39,12.17-50.44,12.93,0,0-7.1-7.31,6.52-13.17,0,0-11.17,1.67-15.46,2.22,0,0-4-6.07,5.91-11.57l-12,1.07s-1.62-5.9,5.48-9.28,25.71-6.59,25.71-6.59,30.83-17.23,38.43-22.08,7.61-11.31-4.47-6.59-23.47,15.11-29.34,4.58c0,0,18.33-12.45,27.26-16.18s28.65-3.2,42.36-.16c14.62,3.24,29.23,20.66,33.4,20.48l6.93,24.11Z"/><path class="cls-13" d="M1016.41,808.22A46.66,46.66,0,1,0,984,720.72L767.71,831.41,779.79,869Z"/></g></svg>