<svg id="Calque_1" data-name="Calque 1" xmlns="http://www.w3.org/2000/svg" xmlns:xlink="http://www.w3.org/1999/xlink" viewBox="0 0 300 295.75"><defs><style>.cls-1,.cls-8{fill:none;}.cls-2{fill:#f4efe5;}.cls-3{fill:#894a46;}.cls-4{fill:#ed6464;}.cls-5{clip-path:url(#clip-path);}.cls-6{fill:#2c80c4;}.cls-7{fill:#fff;}.cls-8{stroke:#d4d4d4;stroke-miterlimit:10;stroke-width:0.25px;}.cls-9{fill:#3a93ed;}.cls-10{fill:#1656a1;}.cls-11{fill:#1769e0;}.cls-12{fill:#6da69b;}.cls-13{fill:#8bc4b9;}.cls-14{fill:#1c1c1c;opacity:0.3;}.cls-15{fill:#fcaf97;}.cls-16{fill:#dd8d85;}.cls-17{fill:#35a;}.cls-18{fill:#ffd471;}</style><clipPath id="clip-path"><circle class="cls-1" cx="150" cy="147.87" r="147.87"/></clipPath></defs><circle class="cls-2" cx="150" cy="147.87" r="147.87"/><path class="cls-3" d="M157.17,121.27s2.18-18.25-5.45-26L156.43,94s5,10.91,2.77,27.69S157.17,121.27,157.17,121.27Z"/><path class="cls-4" d="M191.89,157.27c-6.71,29.54-34.91,26.46-46.38,23.86-10.31-2.34-38.94-8.85-31.51-41.56,9.92-43.7,35.05-25.5,46.17-23C170.19,118.87,202.37,111.15,191.89,157.27Z"/><g class="cls-5"><polygon class="cls-6" points="245.19 221.95 245.19 223.62 180.96 223.62 180.96 245 245.19 245 245.19 246.67 77.43 246.67 77.43 221.95 245.19 221.95"/><rect class="cls-7" x="174.25" y="223.62" width="69.44" height="21.38"/><line class="cls-8" x1="243.69" y1="224.8" x2="174.25" y2="224.8"/><line class="cls-8" x1="243.69" y1="226.64" x2="174.25" y2="226.64"/><line class="cls-8" x1="243.69" y1="228.49" x2="174.25" y2="228.49"/><line class="cls-8" x1="243.69" y1="230.33" x2="174.25" y2="230.33"/><line class="cls-8" x1="243.69" y1="232.17" x2="174.25" y2="232.17"/><line class="cls-8" x1="243.69" y1="234.01" x2="174.25" y2="234.01"/><line class="cls-8" x1="243.69" y1="235.86" x2="174.25" y2="235.86"/><line class="cls-8" x1="243.69" y1="237.7" x2="174.25" y2="237.7"/><line class="cls-8" x1="243.69" y1="239.54" x2="174.25" y2="239.54"/><line class="cls-8" x1="243.69" y1="241.38" x2="174.25" y2="241.38"/><line class="cls-8" x1="243.69" y1="243.23" x2="174.25" y2="243.23"/><rect class="cls-9" x="77.43" y="221.95" width="94.98" height="24.72" transform="translate(249.84 468.62) rotate(-180)"/><polygon class="cls-10" points="253 246.67 253 248.34 188.78 248.34 188.78 269.72 253 269.72 253 271.39 85.25 271.39 85.25 246.67 253 246.67"/><rect class="cls-7" x="182.07" y="248.34" width="69.44" height="21.38"/><line class="cls-8" x1="251.51" y1="249.52" x2="182.07" y2="249.52"/><line class="cls-8" x1="251.51" y1="251.36" x2="182.07" y2="251.36"/><line class="cls-8" x1="251.51" y1="253.21" x2="182.07" y2="253.21"/><line class="cls-8" x1="251.51" y1="255.05" x2="182.07" y2="255.05"/><line class="cls-8" x1="251.51" y1="256.89" x2="182.07" y2="256.89"/><line class="cls-8" x1="251.51" y1="258.73" x2="182.07" y2="258.73"/><line class="cls-8" x1="251.51" y1="260.58" x2="182.07" y2="260.58"/><line class="cls-8" x1="251.51" y1="262.42" x2="182.07" y2="262.42"/><line class="cls-8" x1="251.51" y1="264.26" x2="182.07" y2="264.26"/><line class="cls-8" x1="251.51" y1="266.1" x2="182.07" y2="266.1"/><line class="cls-8" x1="251.51" y1="267.95" x2="182.07" y2="267.95"/><rect class="cls-11" x="59.86" y="246.67" width="120.36" height="24.72" transform="translate(240.08 518.06) rotate(-180)"/><polygon class="cls-12" points="190.72 197.23 190.72 198.9 143.34 198.9 143.34 220.28 190.72 220.28 190.72 221.95 49.37 221.95 49.37 197.23 190.72 197.23"/><rect class="cls-7" x="143.34" y="198.9" width="44.35" height="21.38"/><line class="cls-8" x1="143.34" y1="200.13" x2="187.69" y2="200.13"/><line class="cls-8" x1="143.34" y1="201.44" x2="187.69" y2="201.44"/><line class="cls-8" x1="143.34" y1="202.76" x2="187.69" y2="202.76"/><line class="cls-8" x1="143.34" y1="204.07" x2="187.69" y2="204.07"/><line class="cls-8" x1="143.34" y1="205.39" x2="187.69" y2="205.39"/><line class="cls-8" x1="143.34" y1="206.71" x2="187.69" y2="206.71"/><line class="cls-8" x1="143.34" y1="208.02" x2="187.69" y2="208.02"/><line class="cls-8" x1="143.34" y1="209.34" x2="187.69" y2="209.34"/><line class="cls-8" x1="143.34" y1="210.65" x2="187.69" y2="210.65"/><line class="cls-8" x1="143.34" y1="211.97" x2="187.69" y2="211.97"/><line class="cls-8" x1="143.34" y1="213.29" x2="187.69" y2="213.29"/><line class="cls-8" x1="143.34" y1="214.6" x2="187.69" y2="214.6"/><line class="cls-8" x1="143.34" y1="215.92" x2="187.69" y2="215.92"/><line class="cls-8" x1="143.34" y1="217.23" x2="187.69" y2="217.23"/><line class="cls-8" x1="143.34" y1="218.55" x2="187.69" y2="218.55"/><rect class="cls-13" x="49.37" y="197.23" width="91.91" height="24.72"/><polygon class="cls-12" points="31.14 271.35 31.14 273.02 109.41 273.02 109.41 294.41 31.14 294.41 31.14 296.07 264.64 296.07 264.64 271.35 31.14 271.35"/><rect class="cls-7" x="36.14" y="273.02" width="73.27" height="21.38"/><line class="cls-8" x1="109.41" y1="274.25" x2="36.14" y2="274.25"/><line class="cls-8" x1="109.41" y1="275.56" x2="36.14" y2="275.56"/><line class="cls-8" x1="109.41" y1="276.88" x2="36.14" y2="276.88"/><line class="cls-8" x1="109.41" y1="278.2" x2="36.14" y2="278.2"/><line class="cls-8" x1="109.41" y1="279.51" x2="36.14" y2="279.51"/><line class="cls-8" x1="109.41" y1="280.83" x2="36.14" y2="280.83"/><line class="cls-8" x1="109.41" y1="282.14" x2="36.14" y2="282.14"/><line class="cls-8" x1="109.41" y1="283.46" x2="36.14" y2="283.46"/><line class="cls-8" x1="109.41" y1="284.78" x2="36.14" y2="284.78"/><line class="cls-8" x1="109.41" y1="286.09" x2="36.14" y2="286.09"/><line class="cls-8" x1="109.41" y1="287.41" x2="36.14" y2="287.41"/><line class="cls-8" x1="109.41" y1="288.73" x2="36.14" y2="288.73"/><line class="cls-8" x1="109.41" y1="290.04" x2="36.14" y2="290.04"/><line class="cls-8" x1="109.41" y1="291.36" x2="36.14" y2="291.36"/><line class="cls-8" x1="109.41" y1="292.67" x2="36.14" y2="292.67"/><rect class="cls-13" x="112.82" y="271.35" width="151.82" height="24.72" transform="translate(377.46 567.43) rotate(-180)"/><polygon class="cls-14" points="31.14 271.35 112.82 288.18 264.64 271.35 264.64 271.35 31.14 271.35"/><polygon class="cls-14" points="190.72 221.95 172.41 230.33 83.08 221.95 83.08 221.95 190.72 221.95"/><polygon class="cls-14" points="239.32 246.67 180.22 263.38 71.57 246.67 77.22 246.67 239.32 246.67"/></g><g class="cls-5"><path class="cls-15" d="M181.72,45.76,146,40.07l-35.61-2.33C108.25,44,112.21,49.18,124.58,49l21.34,2.1L178.61,61.4Z"/><path class="cls-15" d="M171.32,48.49,127.51,58,85.38,71.33c.39,8.15,7.29,12.37,21.46,6.55L132.4,70.7l42.37-2.77Z"/><path class="cls-15" d="M163.83,58.21,123.59,78l-37.7,23c2.34,7.82,10,10.25,22.41,1.2l23.08-13.11,40.46-12.87Z"/><path class="cls-15" d="M236.07,58c-3.64,20.22-16,36.24-26.29,54.89,0,0-8.05-18.42-15-12.38.32-11.73-18.73-10-27.46-10.81-14.88-11.66-13-38.8,1.42-46,20.52-6.52,44.57-16.56,44.57-16.56L279.77,6.62l7.79,43.7Z"/><path class="cls-16" d="M138.92,86.73l-3.14,1c.41-.18,9.76-6.74,15.05-9.76,3.7-2.11,5-1.49,3.46-.56Z"/><path class="cls-15" d="M204.77,79s15.9,13.86,11.47,21.4-13,25.54-14.57,32.29c-.46,1.95-.91,4.06-1.39,6.48-.39,2-.79,5.61-2.87,6.56-2.29,1-7.62-1.58-8.67-12.93-.58-6.29.82-11.08,2-15.45,1.09-3.95,3.13-9.24,4-16.92C196.68,95.64,204.77,79,204.77,79Z"/><path class="cls-16" d="M136.84,70.41l2.47-.16L152,64c2.24-1.1,1.39-1.66-1.82-.32S136.84,70.41,136.84,70.41Z"/><path class="cls-16" d="M151.45,52.81s8.35-1.85,9.76-2.12,1-1-.14-.79l-11.4,2.35Z"/><path class="cls-16" d="M124.17,93.22s4.42-11.61,5.3-13.44,10.39-5.94,12-6.22,12.89-1.66,21.84-.14l-16.89,2.86-10,2.5L128.87,87l-3.11,5.37Z"/><path class="cls-15" d="M168,73.64c-15.08-.76-29.83-1.11-37.86,7.19l-17,40.77c-.94,2.52,5.67,5.47,11.67.73,2.8-2.21,5.7-8.25,7.2-12.89l8.79-17.5a97.25,97.25,0,0,1,26.56-2.29Z"/><path class="cls-16" d="M140.73,92c-2-2.19-3.52-3.94-3.85-3.72s.86,2.65,3.09,5.11l0,0Z"/></g><path class="cls-17" d="M166,154.5a2.5,2.5,0,0,1-2.51-2.3c-.62-4.93-1.09-10.15-1.39-15.48a2.39,2.39,0,0,1,.63-1.87,2.55,2.55,0,0,1,1.89-.82,2.66,2.66,0,0,1,.92.16c4.73,1.76,9.78,3.86,15.43,6.43a2.6,2.6,0,0,1,1.54,2.18,2.48,2.48,0,0,1-1.15,2.26c-5,3.53-9.61,6.5-14,9.05a2.53,2.53,0,0,1-1.35.39Z"/><path class="cls-7" d="M164.65,134.53a2.18,2.18,0,0,1,.74.13c4.92,1.83,10.07,4,15.41,6.41a2,2,0,0,1,.32,3.57c-4.77,3.36-9.44,6.4-14,9a2.06,2.06,0,0,1-1.1.32,2,2,0,0,1-2-1.84c-.63-5-1.08-10.2-1.38-15.47a2,2,0,0,1,2-2.16m0-1a3,3,0,0,0-2.26,1,2.88,2.88,0,0,0-.76,2.26c.3,5.32.77,10.55,1.39,15.5a3,3,0,0,0,4.65,2.24c4.38-2.54,9-5.51,14-9.06a3,3,0,0,0,1.35-2.7,3.07,3.07,0,0,0-1.82-2.59c-5.68-2.58-10.74-4.69-15.48-6.45a3.17,3.17,0,0,0-1.09-.19Z"/><path class="cls-18" d="M154.78,168.12a1.75,1.75,0,0,1-1.68-2.18c.66-3,1.47-6.1,2.4-9.26a1.69,1.69,0,0,1,1.66-1.27,1.84,1.84,0,0,1,1.16.42c2.38,2,4.87,4.26,7.62,6.92a1.77,1.77,0,0,1,.49,1.77,1.71,1.71,0,0,1-1.27,1.21c-3.64,1-6.91,1.78-10,2.35a1.48,1.48,0,0,1-.38,0Z"/><path class="cls-7" d="M157.16,155.91a1.31,1.31,0,0,1,.84.31c2.47,2.07,5,4.39,7.59,6.89a1.25,1.25,0,0,1-.55,2.14c-3.45.95-6.79,1.75-10,2.34a1.43,1.43,0,0,1-.29,0,1.25,1.25,0,0,1-1.2-1.55c.68-3,1.48-6.14,2.4-9.25a1.2,1.2,0,0,1,1.18-.91m0-1a2.2,2.2,0,0,0-2.15,1.66c-.92,3.14-1.74,6.27-2.4,9.28a2.19,2.19,0,0,0,.4,1.9,2.24,2.24,0,0,0,2.29.81c3-.56,6.34-1.33,10-2.35a2.17,2.17,0,0,0,1.6-1.55,2.3,2.3,0,0,0-.61-2.26c-2.77-2.67-5.27-5-7.66-7a2.31,2.31,0,0,0-1.48-.54Z"/></svg>