<svg id="Calque_1" data-name="Calque 1" xmlns="http://www.w3.org/2000/svg" xmlns:xlink="http://www.w3.org/1999/xlink" viewBox="0 0 295.79 300"><defs><style>.cls-1{fill:none;}.cls-2{fill:#f4efe5;}.cls-3{clip-path:url(#clip-path);}.cls-4{fill:#fcaf97;}.cls-5{fill:#e09682;}.cls-6{fill:#dd8d85;}.cls-7{fill:#5c7eea;}.cls-8{fill:#393950;}</style><clipPath id="clip-path"><circle class="cls-1" cx="147.9" cy="150" r="147.87"/></clipPath></defs><circle class="cls-2" cx="147.87" cy="150" r="147.87"/><g class="cls-3"><path class="cls-4" d="M238,208.71c-10.59-12.09-35.21,10.51-35.21,10.51s-20.54,8-32.55,7.72l-.55,14.41,27.91-4C203.64,236.5,234.82,214.84,238,208.71Z"/><path class="cls-5" d="M216.91,209.16a100.37,100.37,0,0,0-14.08,10.06s-20.54,8-32.55,7.72l-.55,14.41,26.74-3.82C202.89,231.61,211.38,220.25,216.91,209.16Z"/><path class="cls-4" d="M191.78,217.86c10.51-10.3,14.71-35.16,29.08-28-.62,14.89-17.9,39.93-27.93,48-11.05,3.48-25.77,5-37,6l8.3-19.33C176.55,223.37,181.65,223.09,191.78,217.86Z"/><path class="cls-5" d="M196.88,211.06a33.37,33.37,0,0,1-5.1,6.8,48.48,48.48,0,0,1-13.86,5c-5.69,5.41-10.33,6.58-16.73,8.59l-5.29,12.33c9.18-.79,20.65-2,30.57-4.24C190.32,233.15,194.5,222,196.88,211.06Z"/><path class="cls-4" d="M154,257c-12.09,6.26-27.89,2.49-68.28,2.49-7.85,5.94-17.63,21.11-32.8,38.35l-27-36c23.69-21.51,46.68-38.55,46.68-38.55,26.84-29.78,49.83-19.74,75.35-21.27,9.2.84,34.81-1.79,33,6.81-2.39,11.24-26.56,8.86-30.65,8.34a31,31,0,0,0-8.75.47c6.87,4.28,22.69,6.81,22.69,6.81Z"/><path class="cls-5" d="M168.84,202.58c7.2.54,13,2,12.07,6.29-2.39,11.24-26.56,8.86-30.65,8.34C167,216.92,160.45,208.45,168.84,202.58Z"/><path class="cls-4" d="M177,222.2c7-13,2.28-38,19.44-35.36,3.84,14.39-5.22,43.44-12.41,54.1A155.38,155.38,0,0,1,154,257l-2.38-22.82C163.05,229.47,168.9,230.2,177,222.2Z"/><path class="cls-5" d="M153.54,252.85s16.56-4.73,18.54-6.06,5.49-16.63,5.73-19.41c.21-2.53.29-5,.26-7.44-.32.78-.67,1.54-1,2.26a29.3,29.3,0,0,1-11.73,7.32l-4.21,7.3-9,1.73Z"/><path class="cls-5" d="M166.84,224.59q-14.86-1.53-25.33-6.91c-.92.57,3.92,2.33.69,5.82-4.35,4.69-23.14,3.68-32.75-1.88,10.58,10.8,33.93,20.41,52.43,12.62Z"/><path class="cls-5" d="M131.27,224.3c-1.92-.71.67-1.33,3.84-1.83,2.66-.42.54-2.94-2.88-2.34-6.36,1.12-9.85,1.46-15.72.11-3.78-.87-5.64-3.6-10.54-4.81s1.35,4.08,3.22,5.59a21.42,21.42,0,0,0,6.15,3.83c4.4,1.57,8.87,3.15,13.53,3.47,3,.21,13.79-2.9,13.33-4.82S135.4,225.83,131.27,224.3Z"/><path class="cls-6" d="M95.81,223.22c0-.06.18-.17.6-.35.21-.08.47-.2.79-.3l1.11-.3c.42-.08.9-.18,1.43-.26l.82-.08.44,0,.46,0a22.39,22.39,0,0,1,4.2.23,34.94,34.94,0,0,1,10.18,3.3c3.57,1.74,7.16,4,11,6.19a54,54,0,0,0,5.8,2.81,32.5,32.5,0,0,0,5.77,1.71,33.77,33.77,0,0,0,10.34.37,36.9,36.9,0,0,0,6.9-1.47l1.07-.33c.3-.11.56-.2.78-.26.42-.13.66-.17.69-.12s-.15.19-.53.42c-.19.12-.43.26-.71.41l-1,.49a28.71,28.71,0,0,1-7,2,32.09,32.09,0,0,1-17.06-1.74,50.5,50.5,0,0,1-6.05-2.88c-3.95-2.21-7.48-4.53-10.88-6.28a36.69,36.69,0,0,0-9.58-3.48,23.08,23.08,0,0,0-3.94-.46l-.43,0h-.42l-.79,0-1.38.1-1.1.14c-.32,0-.59.11-.81.13C96.08,223.26,95.83,223.27,95.81,223.22Z"/><path class="cls-6" d="M123.11,204.08c.06-.22,1.11-.17,2.73.29a12.44,12.44,0,0,1,1.31.43c.47.16.95.38,1.46.61a23.94,23.94,0,0,1,3.15,1.79,24.25,24.25,0,0,1,2.82,2.27c.4.39.78.76,1.1,1.14a12.57,12.57,0,0,1,.88,1c1,1.34,1.45,2.3,1.27,2.43-.4.3-3-2.78-7-5.49S123,204.56,123.11,204.08Z"/><path class="cls-6" d="M82.73,255.35c-.07.09-.51-.13-1.21-.63a18.84,18.84,0,0,1-2.74-2.46,25.67,25.67,0,0,1-3.27-4.39A26.4,26.4,0,0,1,71.82,235a25.45,25.45,0,0,1,.44-5.46,19.22,19.22,0,0,1,1-3.53c.33-.8.59-1.22.7-1.18s-.25,1.91-.52,4.88a30.28,30.28,0,0,0,6.25,21.74C81.51,253.86,82.9,255.15,82.73,255.35Z"/><path class="cls-4" d="M159.85,235l5.59-9.7c2.06-9.59-1.09-21,10.05-20.2a73,73,0,0,1,1.09,20.46c-.24,2.79-3.38,18-5.73,19.41s-22.26,10-22.26,10l-1.15-17.13Z"/><path class="cls-6" d="M164.47,239.25c.13-.07.1-.46-.14-1a5.94,5.94,0,0,0-1.43-1.9,5.78,5.78,0,0,0-2.05-1.21c-.59-.19-1-.17-1,0-.1.3,1.12,1,2.33,2.08S164.17,239.39,164.47,239.25Z"/><path class="cls-6" d="M171.54,226.72c.08-.12-.14-.45-.63-.82a5.78,5.78,0,0,0-2.17-1,5.87,5.87,0,0,0-2.38-.06c-.6.13-.94.33-.92.48.06.32,1.44.31,3.05.68S171.35,227,171.54,226.72Z"/></g><rect class="cls-7" x="100.28" y="41.29" width="95.24" height="161.67" rx="3.09" transform="translate(256.88 -35.7) rotate(85.08)"/><path class="cls-8" d="M165,151.3l.35,4.12a1.39,1.39,0,0,1-1.29,1.49L139.59,159a1.4,1.4,0,0,1-1.53-1.25l-.35-4.12a11,11,0,0,1,6.81-11.06,11.34,11.34,0,0,0,11.87-1A11.06,11.06,0,0,1,165,151.3Z"/><path class="cls-8" d="M137.6,114.42l.35,4.11a1.38,1.38,0,0,1-1.29,1.49l-24.48,2.11a1.38,1.38,0,0,1-1.53-1.25l-.36-4.11a11,11,0,0,1,6.81-11.07,11.34,11.34,0,0,0,11.87-1A11.05,11.05,0,0,1,137.6,114.42Z"/><path class="cls-8" d="M130.71,92.51l.22,2.49a8.74,8.74,0,0,1-17.42,1.5L113.29,94a8.74,8.74,0,0,1,17.42-1.5Z"/><path class="cls-8" d="M185.72,110.27l.36,4.12a1.4,1.4,0,0,1-1.3,1.49L160.3,118a1.4,1.4,0,0,1-1.53-1.25l-.35-4.12a11,11,0,0,1,6.81-11.06,11.4,11.4,0,0,0,11.87-1A11,11,0,0,1,185.72,110.27Z"/><path class="cls-8" d="M178.84,88.36l.21,2.5a8.74,8.74,0,0,1-17.42,1.5l-.21-2.5a8.74,8.74,0,0,1,17.42-1.5Z"/><path class="cls-8" d="M158.13,129.39l.22,2.5a8.74,8.74,0,0,1-17.42,1.5l-.22-2.5a8.74,8.74,0,0,1,17.42-1.5Z"/><path class="cls-8" d="M121.74,124.09l-4.63.4a31.53,31.53,0,0,0,18.28,24.61,13.58,13.58,0,0,1,2-4.18A26.94,26.94,0,0,1,121.74,124.09Z"/><path class="cls-8" d="M175.7,119.44a27,27,0,0,1-11.84,23.2,13.71,13.71,0,0,1,2.67,3.78,31.56,31.56,0,0,0,13.8-27.37l-4.63.39Z"/><path class="cls-8" d="M158.85,92.6l-.18-2.13a31.9,31.9,0,0,0-25.15,2.17l.19,2.13a11.46,11.46,0,0,1-.2,3.27,27.23,27.23,0,0,1,26.09-2.27A11.39,11.39,0,0,1,158.85,92.6Z"/></svg>