<svg id="Calque_1" data-name="Calque 1" xmlns="http://www.w3.org/2000/svg" xmlns:xlink="http://www.w3.org/1999/xlink" viewBox="0 0 300 300"><defs><style>.cls-1{fill:none;}.cls-2{fill:#f4efe5;}.cls-3{clip-path:url(#clip-path);}.cls-4{fill:#e09682;}.cls-5{fill:#5c7eea;}.cls-6{fill:#fcaf97;}.cls-7{fill:#dd8d85;}.cls-8{fill:#7dbbe7;opacity:0.36;}.cls-9{fill:#393950;}</style><clipPath id="clip-path"><circle class="cls-1" cx="150" cy="150" r="147.87"/></clipPath></defs><circle class="cls-2" cx="150" cy="150" r="147.87"/><g class="cls-3"><path class="cls-4" d="M152.08,217.48l-4.56-41.6-9.62-22.42c-10.12,4.76-13.25,13.22-4.94,27.74Z"/><path class="cls-5" d="M79.73,242l43.56-89.54a2.53,2.53,0,0,1,3.46-1.12l12.31,6.54a2.53,2.53,0,0,1,1.09,3.34L96.5,250.93A2.52,2.52,0,0,1,93,252l-12.22-6.73A2.53,2.53,0,0,1,79.73,242Z"/><path class="cls-6" d="M154.29,232.44c-.16-24.58-19.08-49.14-32.65-74.82L77.46,208.94c5.24,34.48,16.65,50.75,22.26,59.7l-7.6,63.6,55.46,2.44Z"/><path class="cls-6" d="M99.24,232.33a9.06,9.06,0,0,0,2.54-5.23A10.85,10.85,0,0,0,101,221c-1.11-2.8-2.63-6.45-4.28-10.21,1.83,2.23,3.47,3.83,4.64,4.33a5.84,5.84,0,0,0,5,.4,5.43,5.43,0,0,0,3.08-3.78,8.7,8.7,0,0,0-.64-5.68c-.39-1-.84-2.11-1.32-3.29,2.64,3.53,6.84,5.11,10.19,3.54,4-1.84,5.24-7.35,2.87-12.3,0,0-2.13-6.32-5.1-13.86,2.43,1.72,5.21,2.28,7.51,1.21,6.39-3,6-9.73,3.38-15,0,0-2.66-4.87-7.88-14.57-6.69-12.43-22.84-2.51-16.28,8.54l.83,1.38c-6.85-.56-14.56,8.08-10,16,.42.73.86,1.48,1.29,2.24-5.53-.9-13.18,4.43-9.51,12,.71,1.44,1.53,3,2.42,4.6-5.66-.18-14,7.45-7.85,16.83,5.09,7.79,12.09,19.71,15.43,20.24A4.57,4.57,0,0,0,99.24,232.33Z"/><path class="cls-7" d="M114.56,181.58c.45-.26-1.76-4.92-4.94-10.41s-6.12-9.72-6.57-9.46,1.75,4.93,4.93,10.41S114.11,181.84,114.56,181.58Z"/><path class="cls-7" d="M105.26,199.38c.46-.26-1.64-4.83-4.68-10.22s-5.89-9.55-6.34-9.29,1.64,4.83,4.69,10.22S104.81,199.64,105.26,199.38Z"/><path class="cls-7" d="M90.42,201.17c-1.35-2.79-2.83-4.87-3.3-4.64s.24,2.67,1.59,5.47,2.82,4.87,3.3,4.64S91.77,204,90.42,201.17Z"/><circle class="cls-8" cx="159.44" cy="100.62" r="42.79"/><polygon class="cls-9" points="136.95 156.75 128.71 152.37 136.46 137.85 144.69 142.25 136.95 156.75"/><path class="cls-5" d="M157.37,146.83a46.38,46.38,0,1,1,15.5-2A46,46,0,0,1,157.37,146.83Zm3.87-85.5A39.36,39.36,0,1,0,178,65.93,39,39,0,0,0,161.24,61.33Z"/></g></svg>