<svg id="Calque_1" data-name="Calque 1" xmlns="http://www.w3.org/2000/svg" xmlns:xlink="http://www.w3.org/1999/xlink" viewBox="0 0 370 370"><defs><style>.cls-1,.cls-10,.cls-8{fill:none;}.cls-2{fill:#f4efe5;}.cls-3{clip-path:url(#clip-path);}.cls-4{fill:#3d60b7;}.cls-5{fill:#5c7eea;}.cls-6{fill:#fff;}.cls-7{fill:#d3d3d3;}.cls-8{stroke:#fff;}.cls-10,.cls-8{stroke-miterlimit:10;stroke-width:0.25px;}.cls-9{fill:#a5a5a5;}.cls-10{stroke:#a5a5a5;}.cls-11{clip-path:url(#clip-path-2);}.cls-12{fill:#fcaf97;}.cls-13{fill:#26313d;}.cls-14{fill:#65757f;}.cls-15{fill:#231f20;}.cls-16{fill:#ffd471;}.cls-17{fill:#5d64ed;}.cls-18{fill:#b0d2b3;}.cls-19{fill:#dd8d85;}.cls-20{fill:#262626;}.cls-21{fill:#232a34;}.cls-22{fill:#c1807a;}.cls-23{fill:#333;}.cls-24{fill:#da988d;}</style><clipPath id="clip-path"><path class="cls-1" d="M340.78,195.92a147.88,147.88,0,0,1-294.46,19.6c-.85-6.41-53.56-56.5-53.56-63.14,0-81.67,118.48-104.33,200.15-104.33A147.68,147.68,0,0,1,340.78,195.92Z"/></clipPath><clipPath id="clip-path-2"><rect class="cls-1" x="41.82" y="95.26" width="129.71" height="77.74" rx="0.87"/></clipPath></defs><circle class="cls-2" cx="192.91" cy="192.92" r="150"/><g class="cls-3"><rect x="98.9" y="141.67" width="7.77" height="411.23"/><path class="cls-4" d="M32.26,94.09H176.79a0,0,0,0,1,0,0v80.07a0,0,0,0,1,0,0H32.26A2.16,2.16,0,0,1,30.1,172V96.26A2.16,2.16,0,0,1,32.26,94.09Z"/><rect class="cls-5" x="35.63" y="94.09" width="146.7" height="80.07" rx="2.02"/><rect class="cls-6" x="41.82" y="95.26" width="129.71" height="77.74" rx="0.87"/><path class="cls-7" d="M148.32,95.26h22.34a.87.87,0,0,1,.87.87v76a.87.87,0,0,1-.87.87H148.32a0,0,0,0,1,0,0V95.26A0,0,0,0,1,148.32,95.26Z"/><circle class="cls-6" cx="159.92" cy="134.13" r="5.98"/><circle class="cls-8" cx="159.92" cy="134.13" r="7.54"/><rect class="cls-9" x="153.94" y="152.59" width="11.97" height="11.97"/><rect class="cls-10" x="153.94" y="100.74" width="11.97" height="5.98" rx="0.48"/><rect class="cls-10" x="153.94" y="110.35" width="11.97" height="3.61" rx="0.48"/><g class="cls-11"><path class="cls-12" d="M78.12,370.7l-12,61.16-7.31-1.4c4.81-33,6.72-45.31,9.34-61.75.6-3.66,3.31-6.17,6-5.62S78.72,367.05,78.12,370.7Z"/><ellipse class="cls-12" cx="73.16" cy="369.71" rx="0.36" ry="0.27" transform="translate(-302.54 399.52) rotate(-83.34)"/><path class="cls-12" d="M121.3,372.13l-9,61.67-7.37-1c3.2-33.16,4.51-45.59,6.33-62.13.42-3.69,3-6.33,5.77-5.92S121.72,368.45,121.3,372.13Z"/><path class="cls-13" d="M109.93,337.36c-2.43-35.19-9.73-65.8-9-90.17a14.24,14.24,0,0,1,13.75-15.82h0A14.24,14.24,0,0,1,129.28,246l-.94,90.82a9.21,9.21,0,1,1-18.41.52Z"/><circle class="cls-14" cx="114.76" cy="239.89" r="0.58"/><path class="cls-13" d="M128.31,338l-13.26,84.73-10.09-.9c2.34-47.84,1-67.13,5-85.6A9.21,9.21,0,0,1,128.31,338Z"/><circle class="cls-13" cx="119.14" cy="337.11" r="0.5"/><path class="cls-13" d="M71.47,334.84c6.77-61.39-2.93-93.37,10.38-102.37.59-8.31,5.38-3.09,13.61-1.8h0a14.23,14.23,0,0,1,11.71,17.07l-17.5,89.95a9.21,9.21,0,1,1-18.2-2.85Z"/><circle class="cls-14" cx="94.02" cy="239.06" r="0.58"/><path class="cls-13" d="M89.64,337.9,69.51,421.33l-10.18-1.82c6.18-45.42,5.14-63.32,12.18-84.87a9.21,9.21,0,0,1,18.13,3.26Z"/><circle class="cls-13" cx="80.57" cy="336.27" r="0.5"/><path class="cls-15" d="M108.83,109.43c.33,1,2.24.3,3.79,3.27s0,10.06,1.89,15.19c9.72,26.69,1.6,54.41,1.65,58.42,0,0,.4,4.6-8.12,3.95s-15.21,2.52-18.14,3.67c-1.17.46-4.2.35-7.4,0a8.2,8.2,0,0,1-7.14-10.45c4-13.81,10.37-39.5,5.82-50-1.85-4.25-1.56-12.44,2.07-15.88,2.72-2.58,3.29-7.37,5.33-8.29s7.79-5.56,11.74-3.48S106.66,103,108.83,109.43Z"/><path class="cls-12" d="M105.24,154.48,92.58,154c2-5.14-.11-12.94-.68-17.15L104.38,140C103.25,144.48,104.08,153,105.24,154.48Z"/><path d="M94.1,141.13a11.3,11.3,0,0,0,9.77,5.68,36.52,36.52,0,0,1,.11-4.22C104,142.3,94.1,141.13,94.1,141.13Z"/><path class="cls-12" d="M87.39,127.84s1.25,15.35,12.8,17.29c10.85,1.83,13.08-20.81,7.73-32.4s-22.41-7.21-21.48,10.4"/><path class="cls-15" d="M109.39,112.28s.74-5.28-3.85-7-23.27.87-22.32,15.18,17.52-6.59,17.73-6.62Z"/><ellipse class="cls-12" cx="87.56" cy="129.68" rx="2.36" ry="3.19" transform="translate(-25.13 21.13) rotate(-12.05)"/><ellipse class="cls-12" cx="109.97" cy="126.98" rx="2.36" ry="3.19" transform="translate(-24.08 25.75) rotate(-12.05)"/><path class="cls-15" d="M88.34,130.76s2.63-7,7.75-8,9.3-2.14,11.53-5.18c0,0,1,6.55,3.34,8.66,0,0-.24-17.49-9.89-19.65S81.19,113.49,88.34,130.76Z"/><path class="cls-16" d="M131.11,211.69a6.24,6.24,0,1,0,11.62-4.57l-16.25-44.66a8.21,8.21,0,0,0-12.46-4h0a8.2,8.2,0,0,0-2.7,10.24Z"/><circle class="cls-17" cx="118.77" cy="165.18" r="0.58"/><path class="cls-12" d="M136.13,203.23a6.24,6.24,0,0,0,1.59,12.38L186,204.46l-.37-3.63Z"/><path class="cls-18" d="M136.13,203.23a6.24,6.24,0,0,0,1.59,12.38l39.84-8-.59-7.31Z"/><circle class="cls-6" cx="136.93" cy="209.42" r="0.45"/><path class="cls-12" d="M186,204.54s17.09-3.18,17.83-3.3c0,0,.37-.61-1.19-.86a27.07,27.07,0,0,0-5.68.17s7.14-2,7.88-2.27c0,0,.29-1.31-2-.95,0,0,1.63-.63,2.26-.89,0,0,0-.94-1.82-.82l1.69-.76s-.31-.75-1.56-.6a27.59,27.59,0,0,0-4,1.16s-5.64.38-7.09.4-2-.67,0-1,4.47-.07,4.32-1.64a46.1,46.1,0,0,0-5.08.24,14.83,14.83,0,0,0-5.66,3.07c-1.66,1.41-2.06,4.36-2.63,4.64l1.23,3.12Z"/><path class="cls-19" d="M203.21,195.62c-1,.43-2.1.82-3.15,1.22h0c-.8.19-1.62.35-2.43.52s-1.63.33-2.45.48c.81-.21,1.62-.39,2.43-.57s1.62-.37,2.43-.52h0C201.08,196.37,202.14,196,203.21,195.62Z"/><path class="cls-19" d="M202.77,197.33l-1.17.39-1.17.38h0c-.77.19-1.55.37-2.34.53s-1.56.35-2.35.49c.77-.2,1.55-.39,2.33-.57l2.34-.54h0l1.18-.35C202,197.54,202.37,197.44,202.77,197.33Z"/><path class="cls-19" d="M191.2,197.33a4.58,4.58,0,0,1-.86,1.37,5.18,5.18,0,0,1-1.26,1,5,5,0,0,1-1.52.57,7.54,7.54,0,0,1-.81.12h-.81a7.79,7.79,0,0,0,1.6-.21,5.36,5.36,0,0,0,1.48-.58,5.21,5.21,0,0,0,1.26-1A5.43,5.43,0,0,0,191.2,197.33Z"/><polygon class="cls-16" points="98.66 153.86 104.83 153.49 122.09 157.68 122.14 212.32 129.81 245.01 72.53 245.2 81.71 214.73 75.41 160.46 92.05 154.25 98.66 153.86"/><polygon class="cls-16" points="106.03 156.66 91.22 157.54 92.49 148.49 104.63 147.76 106.03 156.66"/><path class="cls-16" d="M66.3,213.77A6.24,6.24,0,1,1,54.78,209l17.13-44.33a8.22,8.22,0,0,1,12.55-3.74h0A8.21,8.21,0,0,1,87,171.2Z"/><circle class="cls-16" cx="79.57" cy="167.52" r="0.58"/><path class="cls-12" d="M57,206.27a6.24,6.24,0,1,1,7.15,10.23L20.9,240.74l-2.17-2.93Z"/><path class="cls-18" d="M57,206.27a6.24,6.24,0,1,1,7.15,10.23L29.25,237.38l-4.48-5.81Z"/><circle class="cls-6" cx="60.54" cy="211.38" r="0.45"/><path class="cls-12" d="M22.84,239.61S9.3,249.46,8.72,249.9c0,0-.67-.15.18-1.4a26.49,26.49,0,0,1,3.89-3.86s-6.12,3.67-6.81,4c0,0-1.11-.67.69-2.07l-2.12,1s-.65-.64.63-1.82l-1.65.69s-.33-.72.61-1.5a26.72,26.72,0,0,1,3.47-2s4-3.7,5-4.69.87-1.86-.73-.68-3,3.08-4,1.93a44.39,44.39,0,0,1,3.52-3.39,14.26,14.26,0,0,1,5.9-1.93c2.09-.23,4.42,1.45,5,1.24l1.37,2.92Z"/><path class="cls-19" d="M5.18,245.76c1-.51,1.93-1,2.9-1.48h0c.65-.46,1.32-.9,2-1.35s1.33-.89,2-1.32c-.64.47-1.29.93-2,1.39s-1.3.93-2,1.37h0C7.14,244.84,6.17,245.32,5.18,245.76Z"/><path class="cls-19" d="M6.67,246.58l1-.61,1-.59h0c.64-.44,1.28-.87,1.93-1.28s1.29-.85,1.95-1.25c-.63.45-1.27.89-1.9,1.32s-1.28.87-1.93,1.29h0l-1,.57Z"/><path class="cls-19" d="M14.59,238a5.68,5.68,0,0,0,2.21.71,4.51,4.51,0,0,0,1.16,0,6,6,0,0,0,1.13-.31,3.69,3.69,0,0,1-2.31.58,4,4,0,0,1-1.18-.3A3.54,3.54,0,0,1,14.59,238Z"/><ellipse class="cls-15" cx="93" cy="110.07" rx="9.99" ry="9.14" transform="translate(-40.38 55.54) rotate(-27.57)"/><ellipse class="cls-20" cx="98.74" cy="128.65" rx="1.24" ry="0.51" transform="translate(-32.88 223.4) rotate(-88.24)"/><ellipse class="cls-20" cx="106.96" cy="128.65" rx="1.24" ry="0.51" transform="translate(-24.92 231.61) rotate(-88.24)"/><path class="cls-21" d="M96.53,126.34a2.43,2.43,0,0,1,.76-1.16,2.68,2.68,0,0,1,1.31-.6,2.6,2.6,0,0,1,2.05.5,2.83,2.83,0,0,1,.48.5c-.24,0-.45-.06-.66-.08s-.41-.06-.6-.06a4.5,4.5,0,0,0-1.11,0A7.49,7.49,0,0,0,96.53,126.34Z"/><path class="cls-21" d="M105.2,126.27a1.83,1.83,0,0,1,.5-1.09,2,2,0,0,1,1.12-.6,1.94,1.94,0,0,1,1.26.21,1.92,1.92,0,0,1,.82.87c-.21,0-.39-.07-.56-.1s-.34-.07-.5-.08a3.14,3.14,0,0,0-.87,0A5.44,5.44,0,0,0,105.2,126.27Z"/><path class="cls-6" d="M103.53,139a45.35,45.35,0,0,1-5.22-.77s.3,2.51,2.28,2.79C102.78,141.33,103.53,139,103.53,139Z"/><path class="cls-22" d="M102.43,135.45a.18.18,0,0,1-.17-.15.17.17,0,0,1,.14-.2c.71-.14,1.9-.36,2-.79,0-.14,0-.34-.23-.57-1-1.18-1.14-3.86-1.15-4a.18.18,0,0,1,.17-.18.17.17,0,0,1,.18.17s.13,2.68,1.07,3.76a.93.93,0,0,1,.29.92c-.19.57-1.16.79-2.31,1Z"/></g><rect class="cls-23" x="48.53" y="174.17" width="35.03" height="8.16"/><path d="M35.63,174.17h11A1.86,1.86,0,0,1,48.53,176v6.3a0,0,0,0,1,0,0H35.63a0,0,0,0,1,0,0v-8.16A0,0,0,0,1,35.63,174.17Z" transform="translate(84.16 356.49) rotate(180)"/><rect class="cls-23" x="140.18" y="174.17" width="35.03" height="8.16"/><path d="M127.28,174.17h11.16a1.75,1.75,0,0,1,1.75,1.75v6.41a0,0,0,0,1,0,0h-12.9a0,0,0,0,1,0,0v-8.16A0,0,0,0,1,127.28,174.17Z" transform="translate(267.46 356.49) rotate(180)"/><rect class="cls-23" x="85.27" y="80.46" width="35.03" height="13.63"/><path d="M72.37,80.46h12.9a0,0,0,0,1,0,0v9a4.67,4.67,0,0,1-4.67,4.67H72.37a0,0,0,0,1,0,0V80.46A0,0,0,0,1,72.37,80.46Z" transform="translate(157.64 174.55) rotate(180)"/><rect x="86" y="174.17" width="33.58" height="4.45"/><rect x="95.48" y="176.39" width="14.61" height="21.58" rx="0.95"/><path class="cls-12" d="M272.52,299.65S249.39,269,228.71,254l-18.3-5.1-22.23-9.66L168.42,218a126.73,126.73,0,0,0-14.48-13s3.53-10.55,13.82-6.33c12.5,5.13,23.73,17.82,23.73,17.82s-9.57-21.69-9.55-22.41-21.48-39.89-21.48-39.89-8.62-18.82,3.87-17.35c0,0,11.34,16,11.53,16.06s13.94,20.75,13.94,20.75a11.82,11.82,0,0,1,6.82-4.42,14.37,14.37,0,0,1,7.8,3.45s2.52-3.34,5.38-3.93l5.22.45s10,6,10.13,6l8.09.78,11.88,3.83,14,25.27L268,225l89.18,89.45Z"/><path class="cls-24" d="M189.8,173.71a52.74,52.74,0,0,1,8.42,12,52.21,52.21,0,0,1-8.42-12Z"/><path class="cls-24" d="M204.42,172.74c4.24,2.87,8.09,6.08,12.58,8.54-5-1.18-9.3-4.67-12.58-8.54Z"/><path class="cls-24" d="M225.15,175.23a22.14,22.14,0,0,1,10,4,39.42,39.42,0,0,1-10-4Z"/><path class="cls-24" d="M191.49,216.55a56.62,56.62,0,0,1,4.95,14.37,56.36,56.36,0,0,1-4.95-14.37Z"/><path class="cls-19" d="M189.26,233.85l-26.16-24.8-8.51-5.46a10.76,10.76,0,0,0-.65,1.47,126.73,126.73,0,0,1,14.48,13l19.76,21.17,22.23,9.66,18.3,5.1c20.68,15.08,43.81,45.69,43.81,45.69l13.81,2.41c-27.92-35-56.39-55.66-56.39-55.66Z"/><path class="cls-19" d="M181.94,194.14c0,.61,6.92,16.45,9,21.12L185,191s-22.41-37.92-24.63-45a29.06,29.06,0,0,1-1.4-7.72c-3.94,4.19,1.46,16,1.46,16S182,193.43,181.94,194.14Z"/><path class="cls-13" d="M458.57,383.39a43.56,43.56,0,1,1-60.18,63L255.65,288.93l40.85-46.76Z"/></g></svg>