<svg xmlns="http://www.w3.org/2000/svg" xmlns:xlink="http://www.w3.org/1999/xlink" viewBox="0 0 300 295.79"><defs><style>.cls-1{fill:none;}.cls-2{isolation:isolate;}.cls-3{fill:#f4efe5;}.cls-4{clip-path:url(#clip-path);}.cls-5{mix-blend-mode:multiply;opacity:0.4;}.cls-6{fill:#d1cab6;}.cls-7{fill:#fcaf97;}.cls-8{fill:#ea9d88;}.cls-9{fill:#e09682;}.cls-10{fill:#dd8d85;}.cls-11{fill:#efa28e;}.cls-12{fill:#393950;}.cls-13{fill:#ffd471;}.cls-14{fill:#242435;}.cls-15{fill:#7dbbe7;}.cls-16{fill:#5c7eea;}</style><clipPath id="clip-path"><path class="cls-1" d="M343.58,147.43c0,81.67-111.91,147.88-193.58,147.88A147.88,147.88,0,0,1,150-.44C231.67-.44,343.58-39.26,343.58,147.43Z"/></clipPath></defs><g class="cls-2"><g id="Calque_1" data-name="Calque 1"><circle class="cls-3" cx="149.68" cy="147.89" r="147.87"/><g class="cls-4"><g class="cls-5"><path class="cls-6" d="M128,202.13c-.65.29-1.5.68-2.48,1.15l-.57-1.25c.39-.26.77-.52,1.11-.78,3.81-2.84,2.55-8.73-1.17-10.58h0c-3.44-2.22-10.07-1.62-17,0a17.31,17.31,0,0,0-5.19-1.3c-6.59-1-17.76-.54-22,1.87-3.53,2-13.91,22.72-20.43,31.1l-3.37,3.3L-4.62,251.85l16.32,39C62,269.39,74.24,264,74.24,264a121.38,121.38,0,0,0,55.34-20,30.65,30.65,0,0,0,9.06-2.86c4-2.1,1.31-10.44-3.21-10.22l-.18-.74c5.91-2.41,3.72-13.53-4-12.74l-.41-1.11c.82-.34,1.57-.68,2.24-1C139.23,212.34,133.81,199.57,128,202.13Z"/></g><path class="cls-7" d="M53.37,217.51,80.78,190.6s31.45-13.94,40.55-8L118.89,189s11.47,24,13.84,42.11c-4.9,3.55-25.87,20.85-62,24.8,0,0-12.26,5.36-62.54,26.8l-16.32-39Z"/><path class="cls-8" d="M104.82,185s8.81-1.87,7.39-.44a21.68,21.68,0,0,1-4.66,3Z"/><path class="cls-9" d="M111.17,185.41c-1.78-.11-17.08,8.89-19.76,11.79-1.94,2.1-3.08,5.26-2,7.73.58,1.31-5.57,31.11-2.19,28.64s4-4.61,5.89-6.82,1.92,11,2.54,13.76c.78,3.47,3.39-13.45,3.87-11.06s.24,6.22,6.25,7.94c6.39,1.83,20.28-.08,27.57-6.45-1.76-16.47-13.66-40.66-13.66-40.66Z"/><path class="cls-10" d="M69.64,235.86c-.11-.2,2-1.4,5.11-3.8a45.89,45.89,0,0,0,5-4.56,38.67,38.67,0,0,0,5-6.47c.18-.31.37-.61.54-.92l.51-.92c.31-.63.62-1.24.89-1.85a31.43,31.43,0,0,0,1.35-3.6l.14-.44c0-.14.07-.29.11-.43.08-.29.16-.57.23-.85.12-.56.25-1.11.34-1.64a27.32,27.32,0,0,0,.39-3,31.56,31.56,0,0,0,0-4.33c0-.51-.06-.91,0-1.19s0-.42.07-.44.13.12.23.38A7.12,7.12,0,0,1,89.9,203a18.85,18.85,0,0,1,.47,4.41,25.36,25.36,0,0,1-.22,3.11c-.06.55-.18,1.13-.28,1.72-.06.29-.13.59-.2.89,0,.15-.07.31-.11.46l-.12.46a28,28,0,0,1-1.34,3.8c-.26.64-.59,1.29-.91,1.94l-.52,1c-.18.33-.38.64-.57,1a36.26,36.26,0,0,1-5.3,6.68,38.88,38.88,0,0,1-5.41,4.48C72.06,235.12,69.71,236,69.64,235.86Z"/><path class="cls-11" d="M98,223.85c-.84-2.45.74-5,3.52-5.68,0,0,3.83-1.45,8.59-3.18.1,4,.88,8.2,4.09,10.91-5.37.75-9.63,1.13-9.63,1.13A5.52,5.52,0,0,1,98,223.85Z"/><path class="cls-11" d="M97.51,207.49s3.16-1.64,7.38-3.79c.25,3.84,1.41,8.2,4.92,10.25-4.93,1.35-8.69,2.25-8.69,2.25a5.16,5.16,0,0,1-6.62-2.55A4.74,4.74,0,0,1,97.51,207.49Z"/><path class="cls-11" d="M104,231.35a2.86,2.86,0,0,1,.84-2.54,4,4,0,0,1,2.78-1.05,66.38,66.38,0,0,0,7.66-.88,10.4,10.4,0,0,0-.1,6.05,10.69,10.69,0,0,0,1.54,3.64c-5-.16-9.33-1.14-11.08-2.66A4,4,0,0,1,104,231.35Z"/><path class="cls-11" d="M92.55,197.57s3-2,6.92-4.62a15.25,15.25,0,0,0,4.6,9.89c-3.9,1.71-6.77,2.86-6.77,2.86a5,5,0,0,1-6.84-1.5A4.9,4.9,0,0,1,92.55,197.57Z"/><path class="cls-10" d="M90.89,196.36h.33c-.22-.27-.45-.57-.67-.89-1.11-1.55-1.68-3-2-3-.14,0-.19.47,0,1.15a6.9,6.9,0,0,0,1.12,2.44,7.56,7.56,0,0,0,1.16,1.31C90.87,196.74,90.89,196.36,90.89,196.36Z"/><path class="cls-10" d="M99,192.75c-.08-.12-.47,0-1,.3a6.16,6.16,0,0,0-2.24,2.8l.34-.08c.13.31.25.62.37.92.22-.4.47-.86.78-1.32C98.17,194,99.2,193,99,192.75Z"/><path class="cls-10" d="M6.56,281.17l.78,1.88c51.1-21.77,63.36-27.13,63.36-27.13a122.34,122.34,0,0,0,49.35-16.18c-32.3,14.63-49.65,13.5-49.65,13.5Z"/><path class="cls-10" d="M74,254.5A25.24,25.24,0,0,1,62.3,242.94c-4.31-8.55,1.76,8.18,7.47,11.68Z"/><path class="cls-12" d="M92.7,173.72H116a0,0,0,0,1,0,0v64.42a4.37,4.37,0,0,1-4.37,4.37h-2.58A16.38,16.38,0,0,1,92.7,226.14V173.72A0,0,0,0,1,92.7,173.72Z" transform="translate(-61.46 44.7) rotate(-18.79)"/><path class="cls-7" d="M131.58,222.18c-8.47,3.18-27,4.85-27,4.85A5.52,5.52,0,0,1,98,223.85c-.84-2.45.74-5,3.52-5.68,0,0,20.72-7.9,25.77-8.72C135.4,208.13,137.78,219.85,131.58,222.18Z"/><path class="cls-7" d="M129.57,207.27c-8.16,4.08-28.45,8.93-28.45,8.93a5.16,5.16,0,0,1-6.62-2.55,4.74,4.74,0,0,1,3-6.16S118.6,196.58,124.43,194,135.69,204.22,129.57,207.27Z"/><path class="cls-7" d="M135.1,233.09c-9.27,4.9-25.61,4.19-29.49.82a4,4,0,0,1-1.64-2.56,2.86,2.86,0,0,1,.84-2.54,4,4,0,0,1,2.78-1.05c10.34-.66,13.75-2.58,23.65-4.81C136.15,221.84,139.25,230.89,135.1,233.09Z"/><path class="cls-7" d="M122.5,193.13c-7.25,5.41-25.2,12.57-25.2,12.57a5,5,0,0,1-6.84-1.5,4.9,4.9,0,0,1,2.09-6.63s18.8-12.73,23.36-14.87C123.25,179.25,127.82,189.17,122.5,193.13Z"/><path class="cls-8" d="M95.7,196.59c-.75.15-1.5.26-2.18.33,2.53-1.7,9.53-6.4,15.22-10a55.89,55.89,0,0,1,2.38,7.64c.38,1.52.85,3,1.31,4.38-4.64,2.3-9.42,4.37-12.34,5.6A34.17,34.17,0,0,1,95.7,196.59Z"/><path class="cls-8" d="M114.3,205.57c.08.71.33,2.86-1.65,3.69l-.09,0a9.19,9.19,0,0,1-7.73-.55,14.07,14.07,0,0,1-3.81-3.08c3-1.51,7.37-3.77,11.67-5.93l.07.21A31.54,31.54,0,0,1,114.3,205.57Z"/><path class="cls-7" d="M75.1,223.63c14.65-4.16,15.79-27.27,15.79-27.27a24.57,24.57,0,0,0,5.24-.59c5.72,14.55,13,14.11,16.18,12.88s-.13-7-1.87-13.91c-3-11.88-4.69-12.51-11.28-13.5s-17.76-.54-22,1.87-18.33,31.75-23.8,34.4S60.45,227.78,75.1,223.63Z"/><circle class="cls-13" cx="156.13" cy="131.09" r="14.09"/><path class="cls-12" d="M65.83,134h44.69a0,0,0,0,1,0,0v43.7a0,0,0,0,1,0,0H65.83a9.4,9.4,0,0,1-9.4-9.4V143.36A9.4,9.4,0,0,1,65.83,134Z" transform="translate(-45.73 35.18) rotate(-18.79)"/><path class="cls-14" d="M54,149.43H68.23a2.05,2.05,0,0,1,2.05,2.05V152A2.05,2.05,0,0,1,68.23,154H54a0,0,0,0,1,0,0v-4.61a0,0,0,0,1,0,0Z" transform="translate(-45.55 28.09) rotate(-18.79)"/><path class="cls-14" d="M56.28,156.2H70.54a2.05,2.05,0,0,1,2.05,2.05v.51a2.05,2.05,0,0,1-2.05,2.05H56.28a0,0,0,0,1,0,0V156.2a0,0,0,0,1,0,0Z" transform="translate(-47.61 29.19) rotate(-18.79)"/><path class="cls-14" d="M58.59,163H72.84A2.05,2.05,0,0,1,74.89,165v.51a2.05,2.05,0,0,1-2.05,2.05H58.59a0,0,0,0,1,0,0V163A0,0,0,0,1,58.59,163Z" transform="translate(-49.67 30.3) rotate(-18.79)"/><path class="cls-14" d="M60.89,169.74H75.14a2.05,2.05,0,0,1,2.05,2.05v.51a2.05,2.05,0,0,1-2.05,2.05H60.89a0,0,0,0,1,0,0v-4.61A0,0,0,0,1,60.89,169.74Z" transform="translate(-51.73 31.4) rotate(-18.79)"/><path class="cls-12" d="M171.57,168.22c-22.46-5.78-42.49-5.63-59.38.9L98.11,127.75c17.26-6.4,33-18.78,47.62-35.49Z"/><rect class="cls-15" x="158.54" y="86.96" width="4.15" height="85.22" rx="1.84" transform="translate(-33.17 58.62) rotate(-18.79)"/><rect class="cls-15" x="106.17" y="125.73" width="2.99" height="43.7" transform="translate(-41.79 42.53) rotate(-18.79)"/></g><path class="cls-16" d="M266.84,87.11,202.55,75a6,6,0,0,0-7.06,4.82L188.25,118a6,6,0,0,0,4.82,7.06l24.31,4.6,6.55,10.91,9.11-7.94,24.32,4.59a6,6,0,0,0,7.06-4.81l7.24-38.26A6.06,6.06,0,0,0,266.84,87.11Z"/><path class="cls-12" d="M216.9,99c-1.48,7.83,10.63,19.93,10.63,19.93s15.75-7.15,17.18-14.67a7.67,7.67,0,0,0-6.25-8.86,7.83,7.83,0,0,0-6.85,2A7.8,7.8,0,0,0,226,93,7.67,7.67,0,0,0,216.9,99Z"/><path class="cls-16" d="M173.31,24.3l-52.84,7.14A4.94,4.94,0,0,0,116.25,37l4.26,31.44a4.93,4.93,0,0,0,5.54,4.22L146,70l7.87,6.74,5-8.49,20-2.7A4.92,4.92,0,0,0,183.1,60l-4.25-31.44A4.91,4.91,0,0,0,173.31,24.3Z"/><path class="cls-12" d="M137.76,46.33C138.63,52.76,151.1,59,151.1,59s10.34-9.59,9.5-15.76A6.24,6.24,0,0,0,153.5,38a6.39,6.39,0,0,0-4.79,3.29,6.41,6.41,0,0,0-5.5-1.9A6.24,6.24,0,0,0,137.76,46.33Z"/></g></g></svg>